<svg xmlns="http://www.w3.org/2000/svg" width="16" height="20" fill="none"><path fill="#493DF5" d="M13.5 0h-11C1.83715.000609 1.20161.264197.732906.732906.264197 1.20161.000609 1.83715 0 2.5v15c.000609.6629.264197 1.2984.732906 1.7671C1.20161 19.7358 1.83715 19.9994 2.5 20h11c.6629-.0006 1.2984-.2642 1.7671-.7329.4687-.4687.7323-1.1042.7329-1.7671v-15c-.0006-.66285-.2642-1.29839-.7329-1.767094C14.7984.264197 14.1629.000609 13.5 0Zm-6 14h-3c-.13261 0-.25979-.0527-.35355-.1464C4.05268 13.7598 4 13.6326 4 13.5c0-.1326.05268-.2598.14645-.3536C4.24021 13.0527 4.36739 13 4.5 13h3c.13261 0 .25979.0527.35355.1464.09377.0938.14645.221.14645.3536 0 .1326-.05268.2598-.14645.3536C7.75979 13.9473 7.63261 14 7.5 14Zm4-3h-7c-.13261 0-.25979-.0527-.35355-.1464C4.05268 10.7598 4 10.6326 4 10.5c0-.1326.05268-.2598.14645-.3536C4.24021 10.0527 4.36739 10 4.5 10h7c.1326 0 .2598.0527.3536.1464.0937.0938.1464.221.1464.3536 0 .1326-.0527.2598-.1464.3536-.0938.0937-.221.1464-.3536.1464Zm0-3h-7c-.13261 0-.25979-.05268-.35355-.14645C4.05268 7.75979 4 7.63261 4 7.5c0-.13261.05268-.25979.14645-.35355C4.24021 7.05268 4.36739 7 4.5 7h7c.1326 0 .2598.05268.3536.14645.0937.09376.1464.22094.1464.35355 0 .13261-.0527.25979-.1464.35355C11.7598 7.94732 11.6326 8 11.5 8Zm0-3h-7c-.13261 0-.25979-.05268-.35355-.14645C4.05268 4.75979 4 4.63261 4 4.5c0-.13261.05268-.25979.14645-.35355C4.24021 4.05268 4.36739 4 4.5 4h7c.1326 0 .2598.05268.3536.14645.0937.09376.1464.22094.1464.35355 0 .13261-.0527.25979-.1464.35355C11.7598 4.94732 11.6326 5 11.5 5Z"/></svg>