<svg width="22" height="22" viewBox="0 0 22 22" fill="none" xmlns="http://www.w3.org/2000/svg">
<path d="M11 3C11.3 3 11.5 2.8 11.5 2.5V0.5C11.5 0.2 11.3 0 11 0C10.7 0 10.5 0.2 10.5 0.5V2.5C10.5 2.8 10.7 3 11 3Z" fill="#D0D2D6"/>
<path d="M12.5 20.5H9.5C9.2 20.5 9 20.7 9 21C9 21.3 9.2 21.5 9.5 21.5H12.5C12.8 21.5 13 21.3 13 21C13 20.7 12.8 20.5 12.5 20.5Z" fill="#D0D2D6"/>
<path d="M11 4.5C7.4 4.5 4.5 7.4 4.5 11C4.5 13.45 5.85 15.65 8 16.75V19C8 19.3 8.2 19.5 8.5 19.5H13.5C13.8 19.5 14 19.3 14 19V16.75C17.2 15.1 18.4 11.15 16.75 8C15.65 5.85 13.45 4.5 11 4.5Z" fill="#D0D2D6"/>
<path d="M4.34999 5.04999C4.54999 5.24999 4.84999 5.24999 5.04999 5.04999C5.24999 4.84999 5.24999 4.54999 5.04999 4.34999L3.64999 2.94999C3.44999 2.74999 3.14999 2.74999 2.94999 2.94999C2.74999 3.14999 2.74999 3.44999 2.94999 3.64999L4.34999 5.04999Z" fill="#D0D2D6"/>
<path d="M17.3 5.19999C17.45 5.19999 17.55 5.14999 17.65 5.04999L19.05 3.64999C19.25 3.44999 19.25 3.14999 19.05 2.94999C18.85 2.74999 18.55 2.74999 18.35 2.94999L16.95 4.34999C16.75 4.54999 16.75 4.84999 16.95 5.04999C17.05 5.14999 17.15 5.19999 17.3 5.19999Z" fill="#D0D2D6"/>
<path d="M3 11C3 10.7 2.8 10.5 2.5 10.5H0.5C0.2 10.5 0 10.7 0 11C0 11.3 0.2 11.5 0.5 11.5H2.5C2.8 11.5 3 11.3 3 11Z" fill="#D0D2D6"/>
<path d="M21.5 10.5H19.5C19.2 10.5 19 10.7 19 11C19 11.3 19.2 11.5 19.5 11.5H21.5C21.8 11.5 22 11.3 22 11C22 10.7 21.8 10.5 21.5 10.5Z" fill="#D0D2D6"/>
<path d="M20.1 17.05L18.35 16.05C18.1 15.9 17.8 16 17.65 16.2C17.5 16.4 17.6 16.75 17.8 16.9L19.55 17.9C19.8 18.05 20.1 17.95 20.25 17.75C20.4 17.55 20.35 17.2 20.1 17.05C20.15 17.05 20.1 17.05 20.1 17.05Z" fill="#D0D2D6"/>
<path d="M3.60001 16.05L1.85001 17.05C1.60001 17.2 1.50001 17.5 1.65001 17.75C1.80001 18 2.10001 18.1 2.35001 17.95L4.10001 16.95C4.35001 16.8 4.45001 16.5 4.30001 16.25C4.15001 16 3.85001 15.9 3.60001 16.05C3.65001 16.05 3.60001 16.05 3.60001 16.05Z" fill="#D0D2D6"/>
</svg>
